<svg xmlns="http://www.w3.org/2000/svg" viewBox="0 0 26.948 19.866">
  <defs>
    <style>
      .cls-1 {
        fill: #7a54ea;
      }
    </style>
  </defs>
  <path id="出差2" class="cls-1" d="M18.374,14.823h2.458a.508.508,0,1,1,0,1.016H17.968a.535.535,0,0,1-.116.013.515.515,0,0,1-.522-.508V12.015a.522.522,0,0,1,1.043,0v2.808Zm4.952-4.806a7.473,7.473,0,0,0-.957-.675q.633-.334,1.16-.665C25.084,7.7,25.884,6.809,25.9,5.969a1.229,1.229,0,0,0-.526-1.033,4.913,4.913,0,0,0-2.214-.869l-.146-.01A12.075,12.075,0,0,0,20.5,4.2a12.435,12.435,0,0,0-4.142,1.408l-.149.084-.171-.048A44.729,44.729,0,0,1,10.7,3.637l-.666-.285c-.548-.235-.783-.337-1.988-.861a30.524,30.524,0,0,0-3.49-1.416C4.1,1.118,3.316,1.718,2.374,2.8a.267.267,0,0,0-.064.117A.344.344,0,0,0,2.3,3v.092l.091.091c.039.039.062.061.334.32A67.631,67.631,0,0,0,8.5,8.66c.172.172.245.311.24.409s-.086.2-.271.327c-.4.221-.818.43-1.832.915l-.186.084-.191-.1C4.1,9.228,2.9,8.664,2.61,8.586l-.1,0a2.849,2.849,0,0,0-.835.392c-.36.234-.589.453-.612.674l0,.067A18.261,18.261,0,0,0,2.328,12.3l.113.216-.121.205a3.383,3.383,0,0,0-.352.763,1.415,1.415,0,0,0,.014,1.047c.233.466.769.682,1.584.682a10.019,10.019,0,0,0,2.307-.349l.321-.078.689-.171q1.138-.286,2.271-.592,1.18-.319,2.354-.659a7.4,7.4,0,0,0-.293,1.178c-2.791.8-4.9,1.3-5.109,1.347a10.462,10.462,0,0,1-2.539.385,2.531,2.531,0,0,1-2.539-1.284,2.767,2.767,0,0,1,.2-2.5C0,10.171,0,9.986,0,9.672,0,8.417,1.94,7.518,2.554,7.518c.328,0,.5,0,3.895,1.7.214-.1.428-.214.628-.314C5.977,8,4.265,6.434,2,4.251a2.875,2.875,0,0,1-.214-.214,1.34,1.34,0,0,1-.528-.9A1.38,1.38,0,0,1,1.569,2.1C2.8.685,3.795,0,4.608,0c.357,0,1.041.285,3.866,1.512a78.377,78.377,0,0,0,7.589,3.039A13.634,13.634,0,0,1,23.338,3.01c.043,0,.071.014.1.014a5.837,5.837,0,0,1,2.525,1.027,2.307,2.307,0,0,1,.984,1.926c-.029,1.213-.956,2.4-2.867,3.595q-.357.224-.755.444Zm-5.169,9.849a5.31,5.31,0,1,1,5.452-5.308A5.381,5.381,0,0,1,18.157,19.866Zm0-9.529a4.384,4.384,0,0,0-3.777,2.123,4.149,4.149,0,0,0,0,4.246,4.384,4.384,0,0,0,3.777,2.123,4.248,4.248,0,1,0,0-8.492Z"/>
</svg>
